
<global>
amp_veltrack=0
ampeg_release=0.35
</global>

<group>
group_label=Group_0-45
lpc_hicc1=42
lpc_locc1=0

<region>
hikey=a#3
hivel=127
lokey=a3
lovel=0
lpc=P6DsQaJMKcKSOpNAi4+3v1KxDEHXQIVAuFEtQK7Su8BuRG8/PVANwO1VgL+1xzI/JwCkP0TtRj/y4n4/CXsav5JwBsA+WMw/A7ICQDH7EMC/qoK8w4HPv0ZkF79R3BFA
lpc_rms=-32.90
pitch_keycenter=a#3
sample=Clarinet_tremolo_PP_A#3.opus
</region>

<region>
hikey=a#4
hivel=127
lokey=a4
lovel=0
lpc=PUssQgiWAsJ5K6DAnWsawZ3QDEEPQf8/97ycPzZMzL/Ggvw+Lvf0vybkcD/IcNE/UxyXQFkV2b63FRPArC8XwIUoG8Cnt92/9dalv4Pfp0CZW3Y/lYx3QEXWAz/5/xBA
lpc_rms=-29.61
pitch_keycenter=a#4
sample=Clarinet_tremolo_PP_A#4.opus
</region>

<region>
hikey=a#5
hivel=127
lokey=a5
lovel=0
lpc=1rnTQQFcHsILIFNB5CTLwFvuPUHK44e9L6kawN970T4okkDAXM3dP8ZcAsAbLhhA+ASUP01uZL+Suw++yplvv6tP075YQRs/0cEJQHvopD/q8uy/IV+RvK9exsBs/YRA
lpc_rms=-22.22
pitch_keycenter=a#5
sample=Clarinet_tremolo_PP_A#5.opus
</region>

<region>
hikey=c4
hivel=127
lokey=b3
lovel=0
lpc=mf/oQcUL5sFPuJE+D+4WwQ3uoEBCi4A/5nJkQLQFYD/a40Y/18UDP5tjIj83rcy/10S9v1L617+bCAC/bc6ZPpAzgr6L5yS//sLrP104fj8DBAu8ieIEPwL/lr/d5tE/
lpc_rms=-31.89
pitch_keycenter=c4
sample=Clarinet_tremolo_PP_C4.opus
</region>

<region>
hikey=c5
hivel=127
lokey=b4
lovel=0
lpc=0JJwQb0gmcHGA04/GD2cv+kN2kD6egA/l4r1Pn02br+zX++/w5uOvx5SYz8MYZY/DA+HP5yJR7+kRoi/kAjovoCvNT5KIME9PS9bPybPDUDm8ky/R2PrvvJk8L9BPNY/
lpc_rms=-34.91
pitch_keycenter=c5
sample=Clarinet_tremolo_PP_C5.opus
</region>

<region>
hikey=c6
hivel=127
lokey=b5
lovel=0
lpc=45QqQk0OPMKsEj9Bwf/2wCRUl0F/Q8M+HNA3PzM2IEAZylK/oNN+QG9djb8f3q5AxSy6P1Blpj/V6IBAK3cQP38zUUDnsZM/yiCTQNwRYkC2XaHA0tOAvxMlbMDxURdB
lpc_rms=-22.42
pitch_keycenter=c6
sample=Clarinet_tremolo_PP_C6.opus
</region>

<region>
hikey=d4
hivel=127
lokey=c#4
lovel=0
lpc=DhL3QtEXGMMTr6e+CtWCwVCR9UE1Pj1BJt5LQeZQD0Gl26jA885FwGVMrcCkJp7AjO9mwHVFNsBQVw9AuAKcQPaRCkGZ1pXAVciIQA13gD7OnSLB+6ikwLnHKsEq4adB
lpc_rms=-22.05
pitch_keycenter=d4
sample=Clarinet_tremolo_PP_D4.opus
</region>

<region>
hikey=d5
hivel=127
lokey=c#5
lovel=0
lpc=ORkeQqzOScI02h9BhJm7wDZ0YUE5mEXAEJSEQJER9L8TcQG/WzHAvvy6V77NerO/9l6MPnOqxjxTqpu+HJKzP+q4Rz/v+eE+vpYUQH1hX0DK8x2/0TkbwPgTAsGEZQ9B
lpc_rms=-26.84
pitch_keycenter=d5
sample=Clarinet_tremolo_PP_D5.opus
</region>

<region>
hikey=C7
hivel=127
lokey=c#6
lovel=0
lpc=5r9bQq1nqcL+uR9CFj30wKdHzEHILAXBUkulPvZGwsAertZAfkHCQFBw60CTiQPALfHyv13fCr+rJQVBGVTeQEmGMcAMu+w+uHgUQJ7ieMBU6Q7Akax/QACvSUFuZgfB
lpc_rms=-15.24
pitch_keycenter=D6
sample=Clarinet_tremolo_PP_D6.opus
</region>

<region>
hivel=127
key=e3
lovel=0
lpc=epfXQbi8HsLDVdZAJHEiwDkxBkFhJD+/xQ+SQPvcucBPLjZAiIGmvrhwuD8Spwc/VzQgP/njtr8Lq+u/bFEov0lQCr8SeHc+IIdVQFWH7L+C1Iu+9CZYv6W20j/mmwK/
lpc_rms=-34.14
sample=Clarinet_tremolo_PP_E3.opus
</region>

<region>
hikey=e4
hivel=127
lokey=d#4
lovel=0
lpc=B0V3QtIrfsLR23JAKbG9weHHPUGBeZrAFs1XQbMSyEBi9IxADs9avwXsZz4Ql0zAfMQNwHrDQcDoXClAwHCgvc12hL+DjZS+Cv/Bv8pLCkB5K6vA2jN2QNNew8AR9x5B
lpc_rms=-26.44
pitch_keycenter=e4
sample=Clarinet_tremolo_PP_E4.opus
</region>

<region>
hikey=e5
hivel=127
lokey=d#5
lovel=0
lpc=yvkbQuFkdcJFW55B6Z6AwEx6hkE8CInAlmnPQIdCCsEvVqE9I3ewvzvZvT/i4ShAwS4XvyvxBcC8wEW/zuTCQA9I9T+MDCfAvGadvLx+K8D7Dfq9wgqPPy4dQj/A5TVA
lpc_rms=-29.29
pitch_keycenter=e5
sample=Clarinet_tremolo_PP_E5.opus
</region>

<region>
hikey=f#3
hivel=127
lokey=f3
lovel=0
lpc=TMnHQYYdB8KQ5VM/YzscP+F58UCWFYA/6tFnQDRMecABY30/xKbmv7hvgj/159q/ZO/RPPWoZr5J+4y/rIWGPc0STkD3w+I/P44QvSGIHMAFEti/RY3qv1JcAL/5tm1A
lpc_rms=-35.13
pitch_keycenter=f#3
sample=Clarinet_tremolo_PP_F#3.opus
</region>

<region>
hikey=f#4
hivel=127
lokey=f4
lovel=0
lpc=8NXJQjhg7MKIFBa/9qlWwVTy7EF0NApBfnTrQDpggUDS8Z3Apzk0wQc2+z/nfCjAeK5jQNb8rMCd1ApAuYFSQFGLu0B86cA+wGxtwIMyBUDAyWbBH70YQLaLwcBA4pRB
lpc_rms=-27.13
pitch_keycenter=f#4
sample=Clarinet_tremolo_PP_F#4.opus
</region>

<region>
hikey=f#5
hivel=127
lokey=f5
lovel=0
lpc=bpZtQX5uocHvTolAseSFwFezwkBzFO++igHHP5rx8z4WVYK/cJm0vzxeA7/r+xc/R6/APYld6z6sVbE//BbEPf3FCb/Ix3q/gg+YvoD/AT0WEyw/U33/vZ2y3T4BOTi/
lpc_rms=-30.85
pitch_keycenter=f#5
sample=Clarinet_tremolo_PP_F#5.opus
</region>

<region>
hikey=g#3
hivel=127
lokey=g3
lovel=0
lpc=znbNQYny38HOTpS/vOORwMntqUBAfUo/JhY+QM0mBsDuCD9A3GQLv1hn2j/6C/6/iStwvwKPhL8S9jy/xJ4eP+L7lj9KyoW7tZbQP78Vgr+6Ubu/7LKev7MT/L1gxylA
lpc_rms=-30.00
pitch_keycenter=g#3
sample=Clarinet_tremolo_PP_G#3.opus
</region>

<region>
hikey=g#4
hivel=127
lokey=g4
lovel=0
lpc=e1l5Qn3imMJ+weVABfK/wCfDrUHSf1FAHN5RwHa0fr8g5wTAoru7v2aztj7ACDy/tcgtQCo/M8DErag/t+cXP0Subr7cL6e/XtlWQN6Bg0AGUQzBq+4xwHyJtsB+nIJB
lpc_rms=-25.59
pitch_keycenter=g#4
sample=Clarinet_tremolo_PP_G#4.opus
</region>

<region>
hikey=g#5
hivel=127
lokey=g5
lovel=0
lpc=1gGsQp+Y6MLpmhdCTWDRwRVXKkJduK7AZFFkQQq8iMEmFhVAJNOvwFv5gUB871NAixqQQO1mDkDF45q/VKO1PoWzlL99K1o+OZgwQNkDkz+rs99ApB5qv/ugbUCxHNXA
lpc_rms=-15.31
pitch_keycenter=g#5
sample=Clarinet_tremolo_PP_G#5.opus
</region>
</group>

<group>
group_label=Group_46-90
lpc_hicc1=84
lpc_locc1=43

<region>
hikey=a#3
hivel=127
lokey=a3
lovel=0
lpc=RkGZQWZf+8HxlshA8yKKvxKdL0EQegZA/FIdwD2KT8CIMJy/3tPRvQcncr2wjFA/ohikPekmMj8q9as+K806P57H4r42KvK/vnS6P57VNr/Ev1++77pPP9s7Sb6qnBS+
lpc_rms=-27.08
pitch_keycenter=a#3
sample=Clarinet_tremolo_MF_A#3.opus
</region>

<region>
hikey=a#4
hivel=127
lokey=a4
lovel=0
lpc=WUC5QcHnCMLXbRdBsxZ+v3vX5UD+k1Y/P67jvyLT+b+yOZG+CaPSPqYRVT+vT6U+5pt5vzoIRb+48b+/xmHPP/fWtz+g0nA8bDWDP+Tnw77izpm/DoVfv5ODhL85bHZA
lpc_rms=-29.07
pitch_keycenter=a#4
sample=Clarinet_tremolo_MF_A#4.opus
</region>

<region>
hikey=a#5
hivel=127
lokey=a5
lovel=0
lpc=sOI1QmK0VMKVW7dBDbjCwPlzREG+5rY/UcMewICuFL/DN74/JpiGQOSrNkAHFEFAyO48wBrDtz78um9Ah3CTQJJNhD89j9O82RbNPZgwgb+yRchAdXd9QLRBxkD2ejzB
lpc_rms=-22.40
pitch_keycenter=a#5
sample=Clarinet_tremolo_MF_A#5.opus
</region>

<region>
hikey=c4
hivel=127
lokey=b3
lovel=0
lpc=2h+2Qbb2+cFsLDZAluq2wCs/F0HtsrZAwsQXP9hvJb93/+C/7DnBvoqes78KgHG/4Btgv6cqUL+Npa493r4aQKDr4j7UhLo+R7avP76bTr8bflK/n0ycv+qCMb+mNto/
lpc_rms=-29.58
pitch_keycenter=c4
sample=Clarinet_tremolo_MF_C4.opus
</region>

<region>
hikey=c5
hivel=127
lokey=b4
lovel=0
lpc=KSkeQe78hcH9Nb1AoPbyPsLOeECjWdC+usoywN1tWr8Grxc/Ug3VP+mNkj7SNGS/X1PgvvAeMb/jWTo/f3lbP2lpE7+6Koc9Dy4IP7eOfb5YqIy918LovtxcOD9gwJE9
lpc_rms=-33.31
pitch_keycenter=c5
sample=Clarinet_tremolo_MF_C5.opus
</region>

<region>
hikey=c6
hivel=127
lokey=b5
lovel=0
lpc=5U5lQg+AisKpzxBCiu7RwPPsQUF+/OC/6GcBwKiI2L4qFuhACaNNQOa+NEBpDJPArv2PQLXzjEBLrm9AH9+1Pg1KbcA24uJAyXZWQBeNpj/5DbVAQJwIwV0v3MC/eOs/
lpc_rms=-20.76
pitch_keycenter=c6
sample=Clarinet_tremolo_MF_C6.opus
</region>

<region>
hikey=d4
hivel=127
lokey=c#4
lovel=0
lpc=oQh9Qn2b4MJXZ/NBfJ83QStYo0Gvb99AkwJgwczbSsGVKMw/rx3PP1Tn2kBF5nM+VzTfwLvksL+IJfE/O7ysQBIHCD8MGGDAuwFgQOfRlMB+6Ym+OGH4vouZwUBtqDDA
lpc_rms=-20.35
pitch_keycenter=d4
sample=Clarinet_tremolo_MF_D4.opus
</region>

<region>
hikey=d5
hivel=127
lokey=c#5
lovel=0
lpc=B5YIQia6acLy0MdBfgihwBxnW0H10I7APDWavlC+k8Ac71dA0x/FPmnAez+JYpq/B269vsWC2L+/bJA/p4idPwsyo79mTgFAV8V4P6xig0BA9da/sn0TwFW8HsHX5CxB
lpc_rms=-23.60
pitch_keycenter=d5
sample=Clarinet_tremolo_MF_D5.opus
</region>

<region>
hikey=C7
hivel=127
lokey=c#6
lovel=0
lpc=1WSPQlodyMLBXFpCXaqYwcb60kHWgV5ARmWrwNjkb0Cq8RhB15GmPi/NyUB4Ox9AtZcOQX2Crj8PIes/fechQd2ipcCVyoxBES3XwLV0dz/TZtrALOl8wJCC4EE9OT3B
lpc_rms=-21.98
pitch_keycenter=D6
sample=Clarinet_tremolo_MF_D6.opus
</region>

<region>
hivel=127
key=e3
lovel=0
lpc=0gK0QfO/IMLeBVtB0ds/wOmDS0HNtvi+P9b5v4UolMDmpqE+yDCqPY3V1D+D9YS+XIytPhTnW78o5Oo+ibfHPyt6nr+eCGu//gB6PzEzNL9aX2o/wM64v4W3MT/NF5s+
lpc_rms=-25.35
sample=Clarinet_tremolo_MF_E3.opus
</region>

<region>
hikey=e4
hivel=127
lokey=d#4
lovel=0
lpc=FczwQSTgPMI/9ClBBSCLwBqJU0EWiT9AcQDQP0HYicAEF6q/OyDHvyct8z5nzn++QTgEv6IorL/SqSk/r+k3P8N9tD+9XLA+k2qBQJoBHr8aSjjAhiuIwGQPhcABF/lA
lpc_rms=-27.19
pitch_keycenter=e4
sample=Clarinet_tremolo_MF_E4.opus
</region>

<region>
hikey=e5
hivel=127
lokey=d#5
lovel=0
lpc=s3vvQfb3Q8JtQrhBjFLOwPR6G0HykrC/1Rnqv8R7mT63wD4//rKsP014Sb+8ZGI+2F+8v0UuuL41+ew/IT73PwXF1L5qLHo+DVUoQBizxL8NiFG+b/lfv0ObqcBKoQdB
lpc_rms=-25.13
pitch_keycenter=e5
sample=Clarinet_tremolo_MF_E5.opus
</region>

<region>
hikey=f#3
hivel=127
lokey=f3
lovel=0
lpc=fiqNQaL+CMKmzGNBFGgZP12nCEHSE03AMBKWwHSsxr/83iNAcEMOQLB+Mr9LEau/46+kv+pqRz4swKs//0y1P6mkk7+xHdS+7y9OP0hnlL9PAP6+5iguP+xJMj6sGKQ8
lpc_rms=-27.58
pitch_keycenter=f#3
sample=Clarinet_tremolo_MF_F#3.opus
</region>

<region>
hikey=f#4
hivel=127
lokey=f4
lovel=0
lpc=9PvNQW3lGMJ3oqVApIEvwGyaSEEKmMFAjp/1v/5zdMBiujPAJh4iwIYQcD8DizdA0c0SvB3s874bM1G/Z5zsPr4Mjb468Ak/P/w9QOmz2L/0BUC/cpcOwF63x7+B+4JA
lpc_rms=-29.18
pitch_keycenter=f#4
sample=Clarinet_tremolo_MF_F#4.opus
</region>

<region>
hikey=f#5
hivel=127
lokey=f5
lovel=0
lpc=oWwFQi6sDMLb+7NAXlAbwSggUkGfT5tAWYoVQNVV+L7TuOi/ZDUtv/+3w79ScLE/fvQDQPevvz9CcDBA6oD5PlMnGj/6/lU+xpeWPQTQwL+GPYc/wH/gPzce3T9yBlRA
lpc_rms=-23.59
pitch_keycenter=f#5
sample=Clarinet_tremolo_MF_F#5.opus
</region>

<region>
hikey=g#3
hivel=127
lokey=g3
lovel=0
lpc=+wiNQaagt8EhoWw/1XdBwDYaD0FiyAdAbN2evrSbOMBlEuG9RUOjvsb5sT1vlsc+U9mJv32r1L5k/BU+ixhBPoGVsD8MpRq/maDNPwoMgb9ozIO/srGBv7TGEr91ehRA
lpc_rms=-26.14
pitch_keycenter=g#3
sample=Clarinet_tremolo_MF_G#3.opus
</region>

<region>
hikey=g#4
hivel=127
lokey=g4
lovel=0
lpc=0RIKQg7Ra8JwsKJBkZj3Pat6ZkEZP8i/7qaBwCsE+8Cx1Tm8A9AkQLQXbUCMCR9AbX76v8XtgMCZLB0+E9gZPfv1jT8wl58/dn1KQJYEOMCfC8C/4jb/vxZTbr2lgYpA
lpc_rms=-27.49
pitch_keycenter=g#4
sample=Clarinet_tremolo_MF_G#4.opus
</region>

<region>
hikey=g#5
hivel=127
lokey=g5
lovel=0
lpc=DljGQj1R9sIE4BtC37/nwa7ARkIdNg4/ZaJcQE1jAsFL2Lq/dDXaPpyrqUA1P1JA/eGCQKloSkAkHotANk8ZwMlSRUCdyv4+VZhAQGV0CEBOEJVAL1SIQNBI7ECIHaPA
lpc_rms=-17.28
pitch_keycenter=g#5
sample=Clarinet_tremolo_MF_G#5.opus
</region>
</group>

<group>
group_label=Group_91-127
lpc_hicc1=127
lpc_locc1=85

<region>
hikey=a#3
hivel=127
lokey=a3
lovel=0
lpc=PAA9Qev818EGm6xByMDiwGzzckAtboPAtXW7Pgjh2T4cQMs/u/2mP1xVdsAvL7k/BWnqvgu/SD/x8WS+MyttPprlyr5XXVs+eLkVP8Modr8aX1++TsouPgUSWT4eBF4+
lpc_rms=-19.60
pitch_keycenter=a#3
sample=Clarinet_tremolo_FF_A#3.opus
</region>

<region>
hikey=a#4
hivel=127
lokey=a4
lovel=0
lpc=fqsUQZj5lMGDGUpBbIivvx7+pT/4tJzASq1NQCYsB8ApbltA/s8cwMiBFb7IgQg/PcByPktzrD7v9bC/tq+tPzj5KL/fFy6+cgkDP6t6N7+tKp4/WXsNPpWc6b8z8+M/
lpc_rms=-20.50
pitch_keycenter=a#4
sample=Clarinet_tremolo_FF_A#4.opus
</region>

<region>
hikey=a#5
hivel=127
lokey=a5
lovel=0
lpc=/NxHQcNhnMEx0zlBZ08cvzLiBcDQw2I+CN/lP8/CEMDE/SBAy6+Wv+SmFz8Mbyq/1MP7P/t7RMD62WpAhqE0wFJD9z8j58q+5IqLPpLCub6xTTQ/80MQwP+0wUCgQ7LA
lpc_rms=-12.71
pitch_keycenter=a#5
sample=Clarinet_tremolo_FF_A#5.opus
</region>

<region>
hikey=c4
hivel=127
lokey=b3
lovel=0
lpc=bRpNQSOk3sFbXJ5B0KekwH/QgEDruYnAvkXivQMggz/7oH0/ETubP5/jOcCgfD0/ZZ8Kv6WH/j7BfXM/7WN/v9wzEL0QpSe/P868P1fcNb8fwO+8SFSkP854HsDGJrQ/
lpc_rms=-18.37
pitch_keycenter=c4
sample=Clarinet_tremolo_FF_C4.opus
</region>

<region>
hikey=c5
hivel=127
lokey=b4
lovel=0
lpc=jsg0QdBzq8GePodBf5OswEbs/T9GaIPAjmWEQBaRLMAF7CVAP/oRwCejpj/dPLO+zvmdPud3ar9rjBU+V1l8P38+v75iIJy/BHCDP/H2uz6qaY8/G72dv/kCIz4xDK4/
lpc_rms=-18.47
pitch_keycenter=c5
sample=Clarinet_tremolo_FF_C5.opus
</region>

<region>
hikey=c6
hivel=127
lokey=b5
lovel=0
lpc=qTSUQe5BnsGEbDpBKG+PwMmqvUAUfZzAxE59QN7pNcD/N4NAfssEwDLjxj8/scA9ZaHCPq+pej9Om/W+vxcQQDe8CsDWDjVA0rH9vxwJlkCdBoLAKh1tQH2h58BC2Q68
lpc_rms=-11.53
pitch_keycenter=c6
sample=Clarinet_tremolo_FF_C6.opus
</region>

<region>
hikey=d4
hivel=127
lokey=c#4
lovel=0
lpc=Q32PQSl1EMKZH65BxPAYwLrmFD/AZW+/dt3Cv3st5z8mA04/ejC2v7rWPL+60pa/8qUoQO4O7b/GpmM/TTQ6v/qsbT6DgVE/9sqYPwxQH8AYmPu+qbq8P/m0wz73DcW8
lpc_rms=-12.36
pitch_keycenter=d4
sample=Clarinet_tremolo_FF_D4.opus
</region>

<region>
hikey=d5
hivel=127
lokey=c#5
lovel=0
lpc=B7/qQN/iV8GfaTZBFu6awFT+F0CTK0/A7LQQQHOCeL8Tp9w/2vWev1RP4L+1k0RAHwV2v44N9L44z9++w9RNP3QTjr766Js+e44RPD0ZDj8dsse9SuyFP6pI3b4aLpK9
lpc_rms=-17.84
pitch_keycenter=d5
sample=Clarinet_tremolo_FF_D5.opus
</region>

<region>
hikey=C7
hivel=127
lokey=c#6
lovel=0
lpc=y0pzQZZ5vcH+tWxBsj6AwIXfikD+kQ3ALjQ4QIyqjr/PRQ5AyfIMPc/C9D5OfLQ/aBblPcvsEz/5NqU//GgXvsOVPT5uE01A/vhhwFrb3kBAdH7BFNFgQXOrcT6M62XA
lpc_rms=-11.37
pitch_keycenter=D6
sample=Clarinet_tremolo_FF_D6.opus
</region>

<region>
hivel=127
key=e3
lovel=0
lpc=Fok9QfHvv8FVYUxBn4rvP7+/cr5z3U7ArR6cvvWCHUDNNCQ/PnPZvl6/5r9ceZk+kFPJPrkBjD4Z9EQ8rqTQPt0ZKr+h08c+3LicPhO/ij5CpgzA61neP3HRwb4+FYc+
lpc_rms=-16.10
sample=Clarinet_tremolo_FF_E3.opus
</region>

<region>
hikey=e4
hivel=127
lokey=d#4
lovel=0
lpc=NWw6QfgPtMFMFT5BXyodwHGem0DeTXHAbbA/P1MQ3T7CI4A+WbuXvhB/YL/vk0S9gJQMP2HOfL+UZ+k/SYt5v1nDL77D9tO+IUD8P7lpQb9r4qq+MiYBPXwc4L9JlMY/
lpc_rms=-18.96
pitch_keycenter=e4
sample=Clarinet_tremolo_FF_E4.opus
</region>

<region>
hikey=e5
hivel=127
lokey=d#5
lovel=0
lpc=xsMHQYjsjsFGbIFBqkn7wILdI0BpGRjA/x6YQBM0qcDbXZFABjzrv3Dl0D7yqM+9O9Xbvp7pBD+6tue+0zsFPz1xjT+wY7y/VDebP66Wn75dyke9QLN6P0kRRsBQYS9A
lpc_rms=-14.37
pitch_keycenter=e5
sample=Clarinet_tremolo_FF_E5.opus
</region>

<region>
hikey=f#3
hivel=127
lokey=f3
lovel=0
lpc=PEoJQaLvksFnxF5Bd/2nwEeudEDsxozAzwRBQP94pb9Ef7Y/QDukv6tyN79w/kk/VlFgP9YShb+w2Jq+lgGlPpOtXz85xEq/EQk+Pyeyob9F6fE+ObxXPi6mnjydnCq+
lpc_rms=-21.34
pitch_keycenter=f#3
sample=Clarinet_tremolo_FF_F#3.opus
</region>

<region>
hikey=f#4
hivel=127
lokey=f4
lovel=0
lpc=aZlLQQ31z8FmzoZBeq5zwKV9cEDxj1XACFe4v49O6T57qWVAE1y/vxnpjb6Pni7AFT0pQKQq6b9+trw/l+8jvq/6nz5ElqO+/UUBPm3ASr4ozdK+A+kWQEUFg8AccyVA
lpc_rms=-18.07
pitch_keycenter=f#4
sample=Clarinet_tremolo_FF_F#4.opus
</region>

<region>
hikey=f#5
hivel=127
lokey=f5
lovel=0
lpc=tk9lQbNv8cHhz85B5FAtwbHkzkDoVcvAL/eIQClnoMBjJNRAYGIvvfVKZcA9xQi+KuMWQCHpxL66F1I+HWXEP4P6v79t6DO+LXZDP2KJuj5PDLA+ZsYtP15V7b/9+Pg/
lpc_rms=-13.97
pitch_keycenter=f#5
sample=Clarinet_tremolo_FF_F#5.opus
</region>

<region>
hikey=g#3
hivel=127
lokey=g3
lovel=0
lpc=ZdI6QQ9dycHJR5BB0UelwIU+fUAHUqrA/SD+P/6WcL7WlB5A8hU/v1JhCMDkxKk+oXSjP4Rmdb+YCAu+w5xCvTgl/j7MZTW+s4RDPwPPCb9SRl2/f6q4P5OL178o3Ws/
lpc_rms=-19.55
pitch_keycenter=g#3
sample=Clarinet_tremolo_FF_G#3.opus
</region>

<region>
hikey=g#4
hivel=127
lokey=g4
lovel=0
lpc=WMcmQdrnt8E8VJNBI5LswMXxoEAtkU3AvSB4v+ob7T4x+Qg/5N0kQJK2N8CSoQG/3pRwP6Kt7j4dv2a+OOYHv+c8Qb5oIgc/1Fr+Pa2zhTza5IS+P3z7P8rcgcD+oSVA
lpc_rms=-18.66
pitch_keycenter=g#4
sample=Clarinet_tremolo_FF_G#4.opus
</region>

<region>
hikey=g#5
hivel=127
lokey=g5
lovel=0
lpc=/W88QjJbl8LO12FCuZGLwdrDU0GSmKLA3NdyQNURnb/oQV+/NeOZQTHvTsHd1LZAqr4KwCfPIUFiKzY+8GHLvpmChUAjBLPAH71gQdblYMCO8hRBTDSBwY7ea0F/fKRA
lpc_rms=-6.96
pitch_keycenter=g#5
sample=Clarinet_tremolo_FF_G#5.opus
</region>
</group>